HIERARCHY
ROOT joint_0
{
	OFFSET 0.000000 0.000000 0.000000
	CHANNELS 6 Xposition Yposition Zposition Zrotation Yrotation Xrotation 
	JOINT joint_1
	{
		OFFSET 7.566162 2.250183 114.799927
		CHANNELS 3 Zrotation Yrotation Xrotation
		JOINT joint_2
		{
			OFFSET -5.201660 -0.414001 104.936035
			CHANNELS 3 Zrotation Yrotation Xrotation
			JOINT joint_3
			{
				OFFSET -6.923584 -0.419739 104.718018
				CHANNELS 3 Zrotation Yrotation Xrotation
				JOINT joint_4
				{
					OFFSET 3.108887 2.881104 149.449951
					CHANNELS 3 Zrotation Yrotation Xrotation
					JOINT joint_5
					{
						OFFSET 19.988770 5.920349 90.786987
						CHANNELS 3 Zrotation Yrotation Xrotation
						End Site
						{
							OFFSET 0.000000 0.000000 0.000000
						}
					}
				}
				JOINT joint_6
				{
					OFFSET 9.283936 -30.015930 84.410034
					CHANNELS 3 Zrotation Yrotation Xrotation
					JOINT joint_7
					{
						OFFSET 47.243164 -155.716736 -23.241089
						CHANNELS 3 Zrotation Yrotation Xrotation
						JOINT joint_8
						{
							OFFSET 31.323730 -15.356873 -268.798950
							CHANNELS 3 Zrotation Yrotation Xrotation
							JOINT joint_9
							{
								OFFSET 28.122314 -2.114624 -262.450012
								CHANNELS 3 Zrotation Yrotation Xrotation
								End Site
								{
									OFFSET 0.000000 0.000000 0.000000
								}
							}
						}
					}
				}
				JOINT joint_10
				{
					OFFSET -5.580566 33.311218 83.498047
					CHANNELS 3 Zrotation Yrotation Xrotation
					JOINT joint_11
					{
						OFFSET -22.773438 160.515381 -27.138062
						CHANNELS 3 Zrotation Yrotation Xrotation
						JOINT joint_12
						{
							OFFSET 27.004395 30.848877 -267.937988
							CHANNELS 3 Zrotation Yrotation Xrotation
							JOINT joint_13
							{
								OFFSET 32.625000 14.824585 -261.518005
								CHANNELS 3 Zrotation Yrotation Xrotation
								End Site
								{
									OFFSET 0.000000 0.000000 0.000000
								}
							}
						}
					}
				}
			}
		}
	}
	JOINT joint_14
	{
		OFFSET 20.623535 -83.447632 -106.174011
		CHANNELS 3 Zrotation Yrotation Xrotation
		JOINT joint_15
		{
			OFFSET 0.661865 -23.563843 -459.915039
			CHANNELS 3 Zrotation Yrotation Xrotation
			JOINT joint_16
			{
				OFFSET -23.461670 -28.727966 -444.760971
				CHANNELS 3 Zrotation Yrotation Xrotation
				JOINT joint_17
				{
					OFFSET 178.992920 54.047363 -80.113001
					CHANNELS 3 Zrotation Yrotation Xrotation
					End Site
					{
						OFFSET 0.000000 0.000000 0.000000
					}
				}
			}
		}
	}
	JOINT joint_18
	{
		OFFSET -19.571533 84.686279 -105.380005
		CHANNELS 3 Zrotation Yrotation Xrotation
		JOINT joint_19
		{
			OFFSET -22.949951 3.639404 -459.933044
			CHANNELS 3 Zrotation Yrotation Xrotation
			JOINT joint_20
			{
				OFFSET -33.690674 4.092651 -445.010971
				CHANNELS 3 Zrotation Yrotation Xrotation
				JOINT joint_21
				{
					OFFSET 187.419678 18.953857 -76.759001
					CHANNELS 3 Zrotation Yrotation Xrotation
					End Site
					{
						OFFSET 0.000000 0.000000 0.000000
					}
				}
			}
		}
	}
}
MOTION
Frames: 9
Frame Time: 0.016667
-3353.478516 830.012512 1110.588013 -14.996786 1.039815 -0.290631 0.027400 -1.069722 1.222055 -0.027091 0.073588 -0.210442 -0.001509 -0.158052 0.174176 -0.075146 1.193628 0.060664 0.000000 0.000000 0.000000 -0.840792 2.339425 1.828757 0.037313 1.751610 0.310567 0.163817 0.504630 1.478166 0.000000 0.000000 0.000000 3.666670 3.691147 -2.376309 0.089336 3.163383 -1.951555 -0.110324 0.779550 -1.448981 0.000000 0.000000 0.000000 -0.091632 2.756988 1.745741 0.087227 -2.403180 0.410926 -0.068558 -0.506643 0.122239 0.000000 0.000000 0.000000 2.343459 -1.372778 0.517122 2.342133 1.107091 0.840657 2.324461 0.606954 0.890889 0.000000 0.000000 0.000000 
-3351.214600 830.837585 1110.400024 -15.150967 1.491578 -0.371834 -0.081050 -0.899056 1.194414 -0.133979 0.063374 -0.238222 -0.105179 -0.129991 0.191720 -0.064185 0.286866 0.219724 0.000000 0.000000 0.000000 -0.932772 2.423355 1.508345 0.054816 1.959093 0.435256 0.258490 -0.431816 1.933318 0.000000 0.000000 0.000000 3.217024 4.204148 -2.049292 0.131301 3.628517 -2.562427 -0.227855 -0.411599 -1.699523 0.000000 0.000000 0.000000 -0.050019 2.409178 1.735186 0.126043 -2.498100 0.454903 -0.038543 -0.507245 0.135853 0.000000 0.000000 0.000000 2.401346 -1.655601 0.489055 2.399014 0.959311 0.852570 2.381545 0.494522 0.925756 0.000000 0.000000 0.000000 
-3348.950928 831.663635 1110.213013 -15.305792 1.938136 -0.452875 -0.188247 -0.719051 1.158860 -0.240726 0.053542 -0.266099 -0.208382 -0.109617 0.214625 -0.051623 -0.621585 0.397846 0.000000 0.000000 0.000000 -1.034714 2.515650 1.206583 0.089604 2.154790 0.525880 0.371129 -1.360248 2.406665 0.000000 0.000000 0.000000 2.785615 4.713070 -1.746231 0.183013 4.091976 -3.172427 -0.335502 -1.606153 -1.921215 0.000000 0.000000 0.000000 -0.008637 2.067194 1.722578 0.164776 -2.594398 0.500207 -0.009055 -0.504064 0.148081 0.000000 0.000000 0.000000 2.459017 -1.932494 0.458944 2.455683 0.810013 0.865190 2.438420 0.385829 0.960137 0.000000 0.000000 0.000000 
-3346.250244 832.311401 1110.005005 -15.495452 2.476706 -0.557964 -0.270880 -0.636943 1.153006 -0.322980 0.053665 -0.290640 -0.287509 -0.100471 0.233135 -0.028691 -1.568604 0.570439 0.000000 0.000000 0.000000 -1.053136 2.646232 0.963134 0.137190 2.365883 0.562498 0.483037 -2.059307 2.870646 0.000000 0.000000 0.000000 2.430436 5.073708 -1.560300 0.224277 4.445184 -3.528754 -0.410662 -2.256834 -2.223795 0.000000 0.000000 0.000000 0.038081 1.666312 1.731379 0.209219 -2.729335 0.556616 0.021847 -0.492665 0.158449 0.000000 0.000000 0.000000 2.529426 -2.266481 0.461117 2.528205 0.625051 0.857985 2.510192 0.305083 0.997778 0.000000 0.000000 0.000000 
-3342.704590 832.681152 1109.741943 -15.753806 3.193751 -0.709784 -0.322434 -0.809128 1.227865 -0.370819 0.094966 -0.307845 -0.332704 -0.144986 0.245794 0.016906 -2.615901 0.712696 0.000000 0.000000 0.000000 -0.898636 2.890125 0.761646 0.193161 2.684961 0.540748 0.586198 -2.490430 3.347872 0.000000 0.000000 0.000000 2.165508 5.248751 -1.544698 0.243745 4.679885 -3.448046 -0.458324 -2.010032 -2.833328 0.000000 0.000000 0.000000 0.093229 1.157200 1.774072 0.264097 -2.952095 0.642704 0.053630 -0.463715 0.163897 0.000000 0.000000 0.000000 2.628102 -2.702096 0.517403 2.634379 0.353626 0.818938 2.614201 0.271891 1.043787 0.000000 0.000000 0.000000 
-3338.721191 832.872620 1109.458984 -16.049667 4.001901 -0.888468 -0.351305 -1.077526 1.329256 -0.391929 0.148160 -0.315347 -0.351827 -0.205049 0.253148 0.078521 -3.700781 0.844748 0.000000 0.000000 0.000000 -0.657383 3.174415 0.620701 0.252687 3.024911 0.472155 0.672583 -2.700708 3.795807 0.000000 0.000000 0.000000 1.954815 5.283170 -1.631911 0.255832 4.814238 -3.110066 -0.475078 -1.232793 -3.568353 0.000000 0.000000 0.000000 0.153222 0.589281 1.837250 0.325089 -3.213635 0.742495 0.085825 -0.418325 0.164542 0.000000 0.000000 0.000000 2.739417 -3.194037 0.604409 2.756991 0.045508 0.760797 2.733279 0.273450 1.092389 0.000000 0.000000 0.000000 
-3335.086182 833.004761 1109.232056 -16.317371 4.733968 -1.051826 -0.354869 -1.073082 1.331965 -0.389398 0.141923 -0.307308 -0.350079 -0.180314 0.241335 0.130196 -4.674662 1.010623 0.000000 0.000000 0.000000 -0.498657 3.303938 0.620468 0.295201 3.152501 0.381048 0.713569 -2.595678 4.078892 0.000000 0.000000 0.000000 1.781301 5.168511 -1.693005 0.254393 4.776122 -2.836103 -0.446082 -0.453142 -3.916730 0.000000 0.000000 0.000000 0.212373 0.052370 1.904432 0.382748 -3.406061 0.813445 0.119999 -0.374824 0.166616 0.000000 0.000000 0.000000 2.830856 -3.666053 0.688795 2.860390 -0.182231 0.699734 2.832004 0.279053 1.132187 0.000000 0.000000 0.000000 
-3332.349121 833.131714 1109.090942 -16.538450 5.303069 -1.176836 -0.331509 -0.523748 1.156770 -0.374044 0.014917 -0.275599 -0.341054 -0.004495 0.198149 0.153447 -5.479249 1.226057 0.000000 0.000000 0.000000 -0.512405 3.123793 0.813765 0.297625 2.899429 0.302869 0.679374 -1.974988 4.089017 0.000000 0.000000 0.000000 1.719296 4.840531 -1.654060 0.210394 4.449197 -2.783011 -0.354751 0.211627 -3.512614 0.000000 0.000000 0.000000 0.274767 -0.417176 1.971626 0.437762 -3.473007 0.829509 0.162928 -0.334363 0.173493 0.000000 0.000000 0.000000 2.890572 -4.085685 0.760875 2.931007 -0.267622 0.634826 2.896877 0.283020 1.158287 0.000000 0.000000 0.000000 
-3329.961182 833.198242 1109.005981 -16.728153 5.779088 -1.278230 -0.272894 0.333362 0.865752 -0.341841 -0.173662 -0.219875 -0.319986 0.227293 0.137404 0.158105 -6.173384 1.462377 0.000000 0.000000 0.000000 -0.610871 2.782678 1.112262 0.273806 2.454253 0.248241 0.599936 -1.040033 3.918390 0.000000 0.000000 0.000000 1.701068 4.373607 -1.545384 0.143825 3.944813 -2.837110 -0.217466 0.898064 -2.702824 0.000000 0.000000 0.000000 0.336933 -0.833394 2.036768 0.488994 -3.475120 0.815490 0.208657 -0.303677 0.184548 0.000000 0.000000 0.000000 2.930762 -4.463603 0.826898 2.981418 -0.275678 0.566452 2.941076 0.284442 1.176172 0.000000 0.000000 0.000000 
